HIERARCHY
ROOT Hips
{
	OFFSET 0.000000 0.000000 0.000000
	CHANNELS 6 Xposition Yposition Zposition Zrotation Yrotation Xrotation 
	JOINT LeftUpLeg_virtual
	{
		OFFSET 0.000000 0.000000 0.000000
		CHANNELS 3 Zrotation Yrotation Xrotation
		JOINT LeftUpLeg
		{
			OFFSET 10.205400 -3.823500 0.155100
			CHANNELS 3 Zrotation Yrotation Xrotation
			JOINT LeftLeg
			{
				OFFSET 0.708757 -12.982077 0.567790
				CHANNELS 3 Zrotation Yrotation Xrotation
				JOINT LeftFoot
				{
					OFFSET -0.708756 -10.717838 -2.184338
					CHANNELS 3 Zrotation Yrotation Xrotation
					JOINT LeftToeBase
					{
						OFFSET 0.108149 -7.191104 7.560241
						CHANNELS 3 Zrotation Yrotation Xrotation
						End Site
						{
							OFFSET 0.000000 0.000000 0.000000
						}
					}
				}
			}
		}
	}
	JOINT RightUpLeg_virtual
	{
		OFFSET 0.000000 0.000000 0.000000
		CHANNELS 3 Zrotation Yrotation Xrotation
		JOINT RightUpLeg
		{
			OFFSET -10.205400 -3.823500 0.005500
			CHANNELS 3 Zrotation Yrotation Xrotation
			JOINT RightLeg
			{
				OFFSET -0.708756 -12.982134 0.610632
				CHANNELS 3 Zrotation Yrotation Xrotation
				JOINT RightFoot
				{
					OFFSET 0.708754 -10.717769 -1.945823
					CHANNELS 3 Zrotation Yrotation Xrotation
					JOINT RightToeBase
					{
						OFFSET -0.108140 -7.191069 7.372968
						CHANNELS 3 Zrotation Yrotation Xrotation
						End Site
						{
							OFFSET 0.000000 0.000000 0.000000
						}
					}
				}
			}
		}
	}
	JOINT Spine_virtual
	{
		OFFSET 0.000000 0.000000 0.000000
		CHANNELS 3 Zrotation Yrotation Xrotation
		JOINT Spine
		{
			OFFSET 0.000000 6.876099 0.125700
			CHANNELS 3 Zrotation Yrotation Xrotation
			JOINT Spine1
			{
				OFFSET 0.000000 8.022060 0.146608
				CHANNELS 3 Zrotation Yrotation Xrotation
				JOINT Spine2
				{
					OFFSET 0.000000 9.168068 0.167552
					CHANNELS 3 Zrotation Yrotation Xrotation
					JOINT Neck_virtual
					{
						OFFSET 0.000000 0.000000 0.000000
						CHANNELS 3 Zrotation Yrotation Xrotation
						JOINT Neck
						{
							OFFSET 0.000000 10.314075 0.188496
							CHANNELS 3 Zrotation Yrotation Xrotation
							JOINT Head
							{
								OFFSET 0.000000 7.643700 -2.377400
								CHANNELS 3 Zrotation Yrotation Xrotation
								End Site
								{
									OFFSET 0.000000 0.000000 0.000000
								}
							}
						}
					}
					JOINT LeftShoulder_virtual
					{
						OFFSET 0.000000 0.000000 0.000000
						CHANNELS 3 Zrotation Yrotation Xrotation
						JOINT LeftShoulder
						{
							OFFSET 4.392200 8.824978 0.174984
							CHANNELS 3 Zrotation Yrotation Xrotation
							JOINT LeftArm
							{
								OFFSET 8.771219 -2.981674 -0.026999
								CHANNELS 3 Zrotation Yrotation Xrotation
								JOINT LeftForeArm
								{
									OFFSET 8.512804 0.000000 -0.000000
									CHANNELS 3 Zrotation Yrotation Xrotation
									JOINT LeftHand
									{
										OFFSET 18.484802 0.000000 -0.000000
										CHANNELS 3 Zrotation Yrotation Xrotation
										End Site
										{
											OFFSET 0.000000 0.000000 0.000000
										}
									}
								}
							}
						}
					}
					JOINT RightShoulder_virtual
					{
						OFFSET 0.000000 0.000000 0.000000
						CHANNELS 3 Zrotation Yrotation Xrotation
						JOINT RightShoulder
						{
							OFFSET -4.392200 8.824993 0.141379
							CHANNELS 3 Zrotation Yrotation Xrotation
							JOINT RightArm
							{
								OFFSET -8.771282 -2.981682 -0.094208
								CHANNELS 3 Zrotation Yrotation Xrotation
								JOINT RightForeArm
								{
									OFFSET -8.494598 0.000000 0.000000
									CHANNELS 3 Zrotation Yrotation Xrotation
									JOINT RightHand
									{
										OFFSET -18.483803 0.000000 0.000001
										CHANNELS 3 Zrotation Yrotation Xrotation
										End Site
										{
											OFFSET 0.000000 0.000000 0.000000
										}
									}
								}
							}
						}
					}
				}
			}
		}
	}
}
MOTION
Frames: 13
Frame Time: 0.033333
-12.416534 16.489094 -3.391839 179.729420 1.718473 -179.610097 0.653742 0.330645 30.099582 4.409695 3.821454 -110.687314 6.242997 1.409328 145.696664 -4.051397 -8.406735 -2.667674 0.000000 0.000000 0.000000 5.141442 -2.051676 28.649833 -5.790454 -0.521751 -107.913055 0.512354 -4.102323 142.603886 -16.200399 18.906911 -7.745255 0.000000 0.000000 0.000000 4.202321 0.960810 34.452181 2.966391 1.812254 29.233343 2.090416 -6.103040 0.139155 -0.014109 -0.162214 0.010716 1.966479 -5.301500 6.601446 14.405130 -12.760677 -12.517596 0.000000 0.000000 0.000000 3.640919 -4.426876 1.649559 5.315673 -17.243176 1.070384 2.310869 -43.229326 -46.968885 -166.051119 -75.422726 176.437201 0.000000 0.000000 0.000000 -0.885671 -2.630101 0.440684 18.938737 32.723573 -2.460929 -4.150887 37.595642 -28.401351 -177.729951 56.038113 177.890255 0.000000 0.000000 0.000000 
-12.502343 16.640764 -3.695078 179.591560 1.072120 -179.337449 -0.047810 -0.588643 29.105731 2.546249 2.645046 -109.626346 5.781123 -0.364870 145.804745 -4.580729 -7.140880 -2.339160 0.000000 0.000000 0.000000 4.801656 -3.249799 27.672662 -5.934388 -0.599251 -106.748863 -0.276766 -3.510663 141.975577 -15.097104 18.584321 -6.608293 0.000000 0.000000 0.000000 4.181646 0.208611 32.798370 2.346051 1.861271 27.849733 2.168995 -6.092744 -0.052819 0.025647 -0.234941 0.085285 1.953772 -5.510913 6.472250 13.542839 -12.776042 -11.342496 0.000000 0.000000 0.000000 3.639710 -4.457096 1.588550 4.843188 -16.931450 1.265982 1.822807 -42.576114 -44.592915 -167.048573 -75.370106 178.063605 0.000000 0.000000 0.000000 -0.904991 -2.800974 0.261108 18.917959 34.452724 -1.977624 -3.568903 36.162399 -27.306903 -178.225918 55.183052 177.974840 0.000000 0.000000 0.000000 
-12.552771 16.773207 -3.847387 179.371901 1.113122 -179.116944 -0.616460 -1.470103 27.870182 1.850964 2.265794 -108.339450 5.149075 -0.489003 145.951621 -4.526812 -6.588433 -2.896179 0.000000 0.000000 0.000000 4.279801 -3.754329 26.409481 -5.845261 -0.916383 -105.122888 -1.563121 -2.537821 141.816515 -14.248797 18.282576 -6.681650 0.000000 0.000000 0.000000 3.682325 0.004432 31.204979 1.518451 2.037383 26.426075 2.247650 -5.943666 -0.273510 -0.006546 -0.262967 0.122743 2.001670 -5.103139 6.231659 12.457931 -12.745311 -10.194842 0.000000 0.000000 0.000000 3.578750 -4.225275 1.505148 4.464652 -16.315754 1.318649 0.960439 -41.297287 -41.713468 -168.121282 -75.593453 179.597010 0.000000 0.000000 0.000000 -0.738717 -2.684779 0.228406 18.564027 36.379548 -1.711644 -2.859948 34.111443 -26.541307 -178.808519 54.320781 177.985372 0.000000 0.000000 0.000000 
-12.567822 16.874956 -3.816970 179.308339 0.766389 -179.224751 -1.136256 -2.316357 26.144793 1.808260 2.182337 -108.170915 4.927763 0.242957 145.222854 -5.210140 -6.267495 -6.035662 0.000000 0.000000 0.000000 3.929217 -5.086375 24.338116 -4.849583 -1.077445 -104.699977 -2.328517 -2.449873 140.931118 -14.133798 16.988711 -8.057326 0.000000 0.000000 0.000000 3.188837 -0.663593 29.991869 0.768865 2.184892 25.208681 2.356014 -5.775733 -0.468423 -0.008100 -0.240114 0.107174 1.972581 -4.856857 5.939680 11.105515 -12.741656 -9.008706 0.000000 0.000000 0.000000 3.658507 -3.784447 1.251065 3.859812 -15.509148 1.414918 -0.437655 -40.212401 -38.539192 -170.032724 -76.221899 -178.191658 0.000000 0.000000 0.000000 -0.748933 -2.370331 -0.003909 18.420534 38.149520 -1.329213 -2.235648 31.676973 -25.983672 -179.327737 53.713195 177.997407 0.000000 0.000000 0.000000 
-12.590016 16.928358 -3.635013 179.256621 0.965042 -179.221268 -1.741573 -3.328381 24.956874 1.774144 2.418379 -108.028191 4.550512 0.664744 145.102738 -5.368284 -6.485568 -8.008295 0.000000 0.000000 0.000000 3.380348 -6.307319 22.569025 -3.837068 -1.207544 -104.220388 -2.462020 -2.657162 140.172024 -14.053387 15.868806 -9.495254 0.000000 0.000000 0.000000 2.561005 -1.348362 29.076696 -0.007036 2.634520 24.068364 2.412593 -5.311896 -0.716974 0.022878 -0.388532 0.040677 2.086362 -4.427128 5.744863 9.894549 -12.645813 -8.038388 0.000000 0.000000 0.000000 3.734763 -3.324797 1.081037 3.220201 -14.781784 1.498092 -1.382132 -39.552799 -35.720913 -172.249694 -76.920142 -175.869940 0.000000 0.000000 0.000000 -0.577245 -1.892280 -0.076455 18.206761 39.697770 -0.944061 -1.770546 28.980008 -25.654158 -179.739078 53.224881 178.013144 0.000000 0.000000 0.000000 
-12.639568 16.938782 -3.344813 179.095060 1.110364 -178.958169 -2.326960 -4.933213 24.420252 1.312612 2.625721 -107.745736 4.716036 0.371788 145.954244 -4.380262 -6.340532 -7.931919 0.000000 0.000000 0.000000 2.803114 -7.809166 21.327407 -2.994577 -1.441626 -103.811629 -2.283796 -2.822956 139.651059 -13.910421 14.923089 -10.530910 0.000000 0.000000 0.000000 1.960499 -2.302906 28.294882 -0.697253 2.910386 23.051940 2.515206 -4.813695 -0.874125 -0.002725 -0.379515 0.147772 2.184604 -3.826026 5.793527 8.720733 -12.589395 -7.270792 0.000000 0.000000 0.000000 3.788793 -2.874434 1.156250 2.599413 -14.211234 1.187689 -1.677271 -39.976626 -33.612201 -175.331093 -77.863405 -172.832992 0.000000 0.000000 0.000000 -0.460093 -1.486229 -0.069758 18.119838 40.911573 -0.749567 -1.443365 26.704049 -25.433951 179.996645 53.222135 178.067225 0.000000 0.000000 0.000000 
-12.744554 16.913198 -3.100576 178.741857 1.264360 -178.465343 -3.026110 -6.038721 24.882453 0.532277 2.321996 -107.094812 5.176892 -0.458235 147.680602 -3.053494 -5.246828 -7.699625 0.000000 0.000000 0.000000 2.246236 -9.128224 20.713430 -2.647858 -2.159436 -103.526735 -2.556564 -2.396391 139.309440 -13.486476 14.980096 -11.530366 0.000000 0.000000 0.000000 1.467446 -3.157134 27.882041 -1.291119 2.949408 22.243460 2.643454 -4.399506 -1.091748 -0.006850 -0.474724 0.174016 2.320230 -3.196336 6.022471 7.970270 -12.454668 -6.713446 0.000000 0.000000 0.000000 3.882629 -2.345956 1.141777 1.890807 -13.741659 1.014875 -1.828668 -41.295160 -32.130917 -178.379939 -78.835737 -169.934219 0.000000 0.000000 0.000000 -0.216102 -0.718414 0.020561 18.297829 41.680215 -0.510828 -1.101618 25.232110 -25.163137 179.743887 53.585597 178.011259 0.000000 0.000000 0.000000 
-12.843975 16.849411 -2.847284 178.872191 1.711968 -178.422122 -3.211522 -6.508866 24.894168 0.097030 2.824703 -107.727902 5.563435 -0.746745 148.335330 -2.511751 -5.227670 -8.611235 0.000000 0.000000 0.000000 2.283672 -9.698821 20.589385 -1.948120 -2.759627 -103.346821 -1.523996 -2.725578 138.919327 -13.614250 14.440065 -13.340139 0.000000 0.000000 0.000000 1.291658 -3.683434 28.215214 -1.571705 3.256818 22.021466 2.799900 -3.835112 -1.050759 -0.012964 -0.437790 0.224699 2.511787 -2.649617 6.248750 7.545564 -12.398079 -6.632290 0.000000 0.000000 0.000000 4.056120 -1.808800 1.436464 1.136259 -13.276060 0.388450 -1.437388 -43.394873 -31.698751 177.557270 -79.683589 -166.073359 0.000000 0.000000 0.000000 -0.153478 -0.375706 0.116821 18.420047 42.253493 -0.176001 -0.858263 24.830280 -25.406313 179.980457 54.169086 178.329955 0.000000 0.000000 0.000000 
-12.922935 16.753885 -2.590038 178.985148 1.907843 -178.613709 -3.286862 -6.576857 24.902948 -0.254865 3.380508 -108.339689 5.841957 -0.912009 148.797665 -2.013800 -5.361012 -9.365796 0.000000 0.000000 0.000000 2.335819 -9.987634 20.998109 -1.260457 -3.297612 -103.043560 0.439874 -3.564287 138.715104 -13.572236 13.378183 -15.841779 0.000000 0.000000 0.000000 1.168197 -3.935679 29.097682 -1.754054 3.262208 22.366908 2.940979 -3.273058 -1.000828 0.007633 -0.361960 0.139909 2.719569 -2.233870 6.374706 7.721247 -12.238131 -6.724846 0.000000 0.000000 0.000000 4.253344 -1.406524 1.290480 0.280922 -12.804183 0.351244 -1.091800 -45.487096 -32.161790 173.037529 -80.358221 -161.719605 0.000000 0.000000 0.000000 -0.009924 0.299564 0.020071 18.651621 42.019454 0.043693 -0.676214 25.510193 -26.185731 -179.841476 54.897960 178.497514 0.000000 0.000000 0.000000 
-12.983851 16.631664 -2.340035 179.110045 1.742839 -178.753810 -3.182700 -6.602071 24.723961 -0.371156 3.866409 -108.927638 6.069957 -0.837906 149.138656 -1.612533 -5.624347 -10.041763 0.000000 0.000000 0.000000 2.442069 -10.136307 21.541208 -0.551293 -3.899046 -102.863708 2.321757 -4.106783 138.875778 -14.132089 12.889264 -18.800302 0.000000 0.000000 0.000000 1.142921 -4.095869 30.203465 -1.797351 3.260549 23.064268 3.027061 -2.856445 -0.912255 0.016010 -0.319873 0.131592 2.868455 -1.783090 6.381772 8.234244 -12.120536 -7.361626 0.000000 0.000000 0.000000 4.337292 -0.963874 1.285814 -0.588639 -12.279688 -0.016750 -0.386764 -47.393443 -33.576158 168.228133 -80.795442 -156.996515 0.000000 0.000000 0.000000 0.014114 0.751776 -0.008377 18.627304 41.394300 0.020552 -0.573980 27.082528 -27.727098 -179.395151 55.570474 178.858557 0.000000 0.000000 0.000000 
-12.986935 16.473455 -1.963140 179.187267 1.254654 -179.001063 -3.026257 -6.677531 24.360020 -0.073077 4.586724 -109.492734 6.271296 -0.494858 149.345105 -1.309427 -6.017154 -10.702998 0.000000 0.000000 0.000000 2.506980 -9.886628 22.042197 0.260056 -4.762174 -102.706210 3.361101 -4.757391 139.431127 -15.194010 12.021583 -21.791751 0.000000 0.000000 0.000000 1.169949 -4.157029 31.526729 -1.756666 3.209098 24.088371 3.024809 -2.660563 -0.889307 0.018047 -0.380825 0.109108 2.966239 -1.365263 6.167134 9.005036 -11.941892 -8.149972 0.000000 0.000000 0.000000 4.364502 -0.439314 1.128145 -1.588624 -11.830619 -0.342291 0.406362 -48.993282 -35.477034 164.004317 -81.118735 -152.687745 0.000000 0.000000 0.000000 -0.012828 1.187647 -0.168108 18.457997 40.276488 -0.125538 -0.598832 29.303257 -29.818868 -178.823764 56.173122 179.287534 0.000000 0.000000 0.000000 
-12.969210 16.292719 -1.543522 179.400601 0.498433 -179.144210 -2.691510 -6.873763 24.038600 0.963780 5.672371 -110.109924 6.569455 0.328265 149.646030 -1.191463 -6.750548 -11.288319 0.000000 0.000000 0.000000 2.651978 -9.481126 22.541492 1.449341 -5.454103 -102.924476 3.704667 -5.025224 140.087904 -16.388651 11.110326 -24.237734 0.000000 0.000000 0.000000 1.326814 -4.161890 32.892279 -1.616195 3.038742 25.216700 2.968773 -2.354333 -0.979078 -0.005647 -0.211992 0.118533 2.976821 -1.207425 5.799988 9.890584 -11.750271 -9.331474 0.000000 0.000000 0.000000 4.326548 -0.318370 0.911003 -2.615760 -11.432465 -0.683262 1.061958 -50.310388 -37.321260 160.371612 -81.250305 -148.786204 0.000000 0.000000 0.000000 -0.182032 1.264564 -0.442005 18.094657 38.602679 -0.320970 -0.751555 31.944583 -31.950966 -178.175101 56.575205 179.805754 0.000000 0.000000 0.000000 
-12.913337 16.085064 -1.155142 179.555578 -0.298610 -179.199343 -2.287456 -6.695312 24.040727 1.844870 6.723113 -110.881366 6.866062 1.125726 149.845826 -1.006437 -7.351316 -11.730301 0.000000 0.000000 0.000000 2.847316 -8.470867 22.998058 3.345591 -6.336433 -103.335052 3.683556 -5.734915 141.020785 -18.221953 9.044157 -25.558682 0.000000 0.000000 0.000000 1.581344 -3.846382 34.211075 -1.433592 2.870169 26.360173 2.875986 -2.208324 -1.195095 -0.010799 -0.129336 0.088058 2.935675 -1.347674 5.393259 10.683819 -11.486595 -10.513142 0.000000 0.000000 0.000000 4.326833 -0.275344 0.518119 -3.659765 -11.140072 -0.824559 1.171632 -51.464564 -38.300993 157.852119 -81.288486 -145.794609 0.000000 0.000000 0.000000 -0.398566 1.395945 -1.051557 17.756885 36.578672 -0.131522 -1.041491 34.881967 -33.615708 -177.438602 56.934893 -179.551617 0.000000 0.000000 0.000000 
